<?xml version="1.0" encoding="utf-8"?>
<!-- Generator: Adobe Adobe Illustrator 24.2.0, SVG Export Plug-In . SVG Version: 6.00 Build 0)  -->
<svg version="1.1" xmlns="http://www.w3.org/2000/svg" xmlns:xlink="http://www.w3.org/1999/xlink" x="0px" y="0px" width="95px"
	 height="95px" viewBox="0 0 95 95" style="enable-background:new 0 0 95 95;" xml:space="preserve">
<style type="text/css">
	.st0{display:none;}
	.st1{display:inline;fill:#013000;}
	.st2{display:inline;fill:#013B00;}
	.st3{display:inline;}
	.st4{fill:#013000;}
	.st5{fill:#013B00;}
	.st6{fill:#6D7002;}
	.st7{fill:#CBD113;}
</style>
<g id="Layer_2" class="st0">
	<path class="st1" d="M26.58,28.19c-2.43,7.43-4.86,14.86-7.29,22.28c0.94-7.49,1.88-14.99,2.82-22.48
		c-1.91,5.64-3.83,11.28-5.74,16.92c0.05-6.44,0.09-12.89,0.14-19.33c0.22,6.24-1.98,12.54-6.05,17.28
		c4.65-9.45,4.43-21.13-0.57-30.4c5.85-1.37,12.34,0.43,16.64,4.63s6.26,10.65,5.03,16.53c-1.31,6.25-2.62,12.51-3.94,18.76
		c2.52-11.91,8.11-23.15,16.08-32.35c-3.25,9.26-6.5,18.51-9.75,27.77c-0.86,2.46,2.36,4.85,4.84,4.04s3.85-3.51,4.24-6.09
		c0.38-2.58,0.05-5.23,0.44-7.8c0.39-2.58,1.79-5.28,4.28-6.06c2.49-0.78,5.68,1.66,4.77,4.11c-6.77,18.22-15.8,35.59-26.82,51.6
		c-0.15-3,1.87-5.62,3.67-8.04s3.53-5.36,2.73-8.26c-0.8-2.9-5.6-4.18-6.71-1.38c-1.45,3.66-2.89,7.32-4.34,10.98
		c-0.42-8.27,3.93-16.61,10.95-21c-5.95,1.89-10.84,6.82-12.69,12.78c-0.06-7.81,6.15-15.19,13.86-16.46
		c-3.65-1.56-8.43,0.92-9.25,4.81C25.33,50.11,26.71,39.2,26.58,28.19z"/>
	<g id="Layer_2_copy" class="st3">
		<path class="st4" d="M66.51,71.42c2.43-7.43,4.86-14.86,7.29-22.28c-0.94,7.49-1.88,14.99-2.82,22.48
			c1.91-5.64,3.83-11.28,5.74-16.92c-0.05,6.44-0.09,12.89-0.14,19.33c-0.22-6.24,1.98-12.54,6.05-17.28
			c-4.65,9.45-4.43,21.13,0.57,30.4c-5.85,1.37-12.34-0.43-16.64-4.63c-4.3-4.2-6.26-10.65-5.03-16.53
			c1.31-6.25,2.62-12.51,3.94-18.76c-2.52,11.91-8.11,23.15-16.08,32.35c3.25-9.26,6.5-18.51,9.75-27.77
			c0.86-2.46-2.36-4.85-4.84-4.04c-2.48,0.8-3.85,3.51-4.24,6.09c-0.38,2.58-0.05,5.23-0.44,7.8c-0.39,2.58-1.79,5.28-4.28,6.06
			s-5.68-1.66-4.77-4.11c6.77-18.22,15.8-35.59,26.82-51.6c0.15,3-1.87,5.62-3.67,8.04s-3.53,5.36-2.73,8.26s5.6,4.18,6.71,1.38
			c1.45-3.66,2.89-7.32,4.34-10.98c0.42,8.27-3.93,16.61-10.95,21c5.95-1.89,10.84-6.82,12.69-12.78
			c0.06,7.81-6.15,15.19-13.86,16.46c3.65,1.56,8.43-0.92,9.25-4.81C67.76,49.5,66.38,60.41,66.51,71.42z"/>
	</g>
</g>
<g id="Layer_3">
	<path class="st6" d="M20.86,45.04c4.9-0.61,8.98-5.5,8.34-10.4c-0.64-4.9-6.25-8.61-10.9-6.96s-6.54,8.51-3.14,12.09
		c1-4.97,2.01-9.93,3.01-14.9c1.18-5.81,9.07-9,13.95-5.63s4.7,11.88-0.32,15.04c4.03-2.59,6.58-7.33,6.51-12.11
		c-0.06-4.79-2.73-9.46-6.83-11.94c6.9,3.19,11.35,11.02,10.57,18.58c-0.78,7.56-6.74,14.31-14.15,16.03
		c-2.81,0.65-3.06,5.18-0.68,6.8c2.38,1.62,5.81,0.64,7.83-1.42c2.02-2.06,2.97-4.9,3.85-7.64c2.56-7.9,8.77-14.54,16.48-17.61
		c-7.76,11.85-15.53,23.69-23.29,35.54c4.45-7.56,11.8-13.36,20.18-15.95c-6.67,7.46-13.34,14.92-20.01,22.38
		c5.96-6.45,14.22-10.74,22.92-11.92C44.86,66.41,34.53,77.79,24.19,89.17c2.66-11.1,2.88-22.78,0.09-33.55
		c-0.63,0.26-1.26,0.51-1.89,0.77C22.44,53.52,22.49,50.64,20.86,45.04z"/>
</g>
<g id="Layer_3_copy">
	<path class="st6" d="M75.97,49.38c-4.9,0.61-8.98,5.5-8.34,10.4s6.25,8.61,10.9,6.96s6.54-8.51,3.14-12.09
		c-1,4.97-2.01,9.93-3.01,14.9c-1.18,5.81-9.07,9-13.95,5.63s-4.7-11.88,0.32-15.04c-4.03,2.59-6.58,7.33-6.51,12.11
		c0.06,4.79,2.73,9.46,6.83,11.94c-6.9-3.19-11.35-11.02-10.57-18.58c0.78-7.56,6.74-14.31,14.15-16.03
		c2.81-0.65,3.06-5.18,0.68-6.8c-2.38-1.62-5.81-0.64-7.83,1.42c-2.02,2.06-2.97,4.9-3.85,7.64c-2.56,7.9-8.77,14.54-16.48,17.61
		C49.2,57.59,56.96,45.74,64.72,33.9c-4.45,7.56-11.8,13.36-20.18,15.95c6.67-7.46,13.34-14.92,20.01-22.38
		c-5.96,6.45-14.22,10.74-22.92,11.92C51.98,28,62.31,16.62,72.65,5.24c-2.66,11.1-2.88,22.78-0.09,33.55
		c0.63-0.26,1.26-0.51,1.89-0.77C74.4,40.9,74.35,43.78,75.97,49.38z"/>
</g>
</svg>
